<svg width="1200" height="630" viewBox="0 0 1200 630" fill="none" xmlns="http://www.w3.org/2000/svg">
  <rect width="1200" height="630" fill="#0B0E1A"/>
  <rect width="1200" height="630" fill="url(#bg-gradient)"/>
  <pattern id="dots" x="0" y="0" width="40" height="40" patternUnits="userSpaceOnUse">
    <circle cx="1" cy="1" r="1" fill="#D4A843" opacity="0.06"/>
  </pattern>
  <rect width="1200" height="630" fill="url(#dots)"/>
  <rect x="0" y="0" width="1200" height="4" fill="#D4A843" opacity="0.6"/>

  <!-- Vault icon -->
  <g transform="translate(540, 110)">
    <rect x="20" y="30" width="80" height="65" rx="6" stroke="#D4A843" stroke-width="3.5" fill="none" opacity="0.8"/>
    <rect x="30" y="30" width="60" height="10" rx="2" fill="#D4A843" opacity="0.12"/>
    <circle cx="60" cy="70" r="12" stroke="#D4A843" stroke-width="2.5" fill="none" opacity="0.6"/>
    <circle cx="60" cy="70" r="4" fill="#D4A843" opacity="0.4"/>
    <path d="M42 30V18a18 18 0 0136 0v12" stroke="#D4A843" stroke-width="3.5" fill="none" opacity="0.5"/>
  </g>

  <text x="600" y="235" text-anchor="middle" font-family="Inter, -apple-system, sans-serif" font-size="16" font-weight="700" fill="#D4A843" letter-spacing="8" opacity="0.8">NBA VAULT</text>

  <text x="600" y="305" text-anchor="middle" font-family="Inter, -apple-system, sans-serif" font-size="52" font-weight="900" fill="white">Real Lines. Real Edges.</text>
  <text x="600" y="365" text-anchor="middle" font-family="Inter, -apple-system, sans-serif" font-size="52" font-weight="900" fill="#D4A843">Public Track Record.</text>

  <text x="600" y="415" text-anchor="middle" font-family="Inter, -apple-system, sans-serif" font-size="20" fill="#888888">NBA player prop picks with edge calculations from DraftKings &amp; FanDuel lines</text>

  <!-- Stats bar -->
  <g transform="translate(250, 460)">
    <rect x="0" y="0" width="700" height="70" rx="12" fill="#111428" stroke="#D4A843" stroke-width="1" opacity="0.4"/>
    <rect x="0" y="0" width="700" height="70" rx="12" fill="#D4A843" opacity="0.04"/>
    <text x="120" y="32" text-anchor="middle" font-family="Inter, sans-serif" font-size="24" font-weight="900" fill="#22c55e">FREE</text>
    <text x="120" y="52" text-anchor="middle" font-family="Inter, sans-serif" font-size="12" fill="#888">Pick of the Day</text>
    <line x1="233" y1="15" x2="233" y2="55" stroke="#333" stroke-width="1"/>
    <text x="350" y="32" text-anchor="middle" font-family="Inter, sans-serif" font-size="24" font-weight="900" fill="#D4A843">EDGE %</text>
    <text x="350" y="52" text-anchor="middle" font-family="Inter, sans-serif" font-size="12" fill="#888">Every pick calculated</text>
    <line x1="466" y1="15" x2="466" y2="55" stroke="#333" stroke-width="1"/>
    <text x="583" y="32" text-anchor="middle" font-family="Inter, sans-serif" font-size="24" font-weight="900" fill="white">VERIFIED</text>
    <text x="583" y="52" text-anchor="middle" font-family="Inter, sans-serif" font-size="12" fill="#888">Every result public</text>
  </g>

  <text x="600" y="585" text-anchor="middle" font-family="Inter, sans-serif" font-size="18" font-weight="600" fill="#D4A843" opacity="0.6">nbavault.com/picks</text>

  <defs>
    <linearGradient id="bg-gradient" x1="0" y1="0" x2="1200" y2="630">
      <stop offset="0%" stop-color="#0B0E1A"/>
      <stop offset="50%" stop-color="#111428"/>
      <stop offset="100%" stop-color="#0B0E1A"/>
    </linearGradient>
  </defs>
</svg>
